<svg width="348" height="316" viewBox="0 0 348 316" fill="none" xmlns="http://www.w3.org/2000/svg">
<path d="M230.132 188.935L214.477 153.784C220.01 146.182 223.259 136.957 223.259 127.02C223.259 101.093 201.161 80 174 80C146.839 80 124.741 101.093 124.741 127.02C124.741 136.957 127.99 146.182 133.523 153.783L117.868 188.935C117.119 190.618 117.248 192.233 118.225 193.367C119.201 194.5 120.836 194.934 122.71 194.559L134.667 192.159C136.08 191.875 138.066 192.681 138.833 193.85L145.319 203.733C146.272 205.186 147.618 206 149.046 206C149.14 206 149.235 205.996 149.33 205.989C150.863 205.874 152.172 204.843 152.921 203.16L166.157 173.441C168.712 173.833 171.331 174.039 174 174.039C176.669 174.039 179.288 173.833 181.842 173.441L195.079 203.16C195.828 204.842 197.137 205.874 198.67 205.989C198.765 205.996 198.86 206 198.954 206C200.382 206 201.728 205.186 202.681 203.733L209.167 193.85C209.934 192.681 211.92 191.874 213.333 192.159L225.289 194.558C227.164 194.934 228.799 194.5 229.775 193.366C230.751 192.233 230.881 190.618 230.132 188.935ZM129.705 189.063L121.847 190.64C121.778 190.654 121.716 190.664 121.66 190.671C121.678 190.62 121.701 190.564 121.729 190.502L136.46 157.426C138.038 159.199 139.751 160.859 141.584 162.392L129.705 189.063ZM134.681 188.127L144.984 164.991C147.036 166.424 149.206 167.71 151.48 168.83L141.681 190.831C139.984 189.016 137.211 187.939 134.681 188.127ZM149.061 201.593C149.033 201.655 149.006 201.71 148.981 201.758C148.947 201.715 148.912 201.665 148.874 201.607L144.446 194.859L155.289 170.512C157.443 171.36 159.672 172.066 161.966 172.618L149.061 201.593ZM174 170.035C149.152 170.035 128.936 150.739 128.936 127.02C128.936 103.301 149.152 84.0044 174 84.0044C198.848 84.0044 219.064 103.301 219.064 127.02C219.064 150.739 198.848 170.035 174 170.035ZM199.126 201.607C199.088 201.665 199.053 201.714 199.02 201.758C198.994 201.71 198.967 201.655 198.939 201.593L186.035 172.617C188.328 172.066 190.557 171.359 192.711 170.512L203.554 194.859L199.126 201.607ZM206.319 190.831L196.52 168.83C198.794 167.71 200.964 166.424 203.015 164.992L213.32 188.127C210.789 187.938 208.016 189.016 206.319 190.831ZM226.152 190.64L218.294 189.063L206.416 162.392C208.249 160.86 209.962 159.199 211.54 157.426L226.271 190.502C226.299 190.564 226.321 190.62 226.339 190.671C226.284 190.664 226.222 190.654 226.152 190.64Z" fill="black"/>
<path d="M174 101.68C159.362 101.68 147.454 113.048 147.454 127.02C147.454 140.992 159.362 152.359 174 152.359C188.638 152.359 200.546 140.992 200.546 127.02C200.546 113.048 188.638 101.68 174 101.68ZM174 148.355C161.675 148.355 151.649 138.784 151.649 127.02C151.649 115.256 161.675 105.685 174 105.685C186.324 105.685 196.351 115.256 196.351 127.02C196.351 138.784 186.325 148.355 174 148.355Z" fill="black"/>
<path d="M174 91.2881C153.359 91.2881 136.567 107.317 136.567 127.02C136.567 146.722 153.359 162.751 174 162.751C194.641 162.751 211.434 146.722 211.434 127.02C211.434 107.317 194.641 91.2881 174 91.2881ZM174 158.747C155.672 158.747 140.761 144.514 140.761 127.02C140.761 109.525 155.672 95.292 174 95.292C192.328 95.292 207.239 109.525 207.239 127.02C207.239 144.514 192.328 158.747 174 158.747Z" fill="black"/>
<path d="M114.984 262H110.592C110.136 262 109.752 261.88 109.44 261.64C109.14 261.4 108.858 261.046 108.594 260.578L103.05 251.83C102.906 251.578 102.75 251.374 102.582 251.218C102.426 251.05 102.252 250.918 102.06 250.822C101.88 250.714 101.67 250.642 101.43 250.606C101.202 250.57 100.938 250.552 100.638 250.552H97.74V262H92.898V235.972H97.74V246.88H100.188C100.68 246.88 101.106 246.796 101.466 246.628C101.826 246.46 102.162 246.148 102.474 245.692L108.18 237.268C108.42 236.884 108.702 236.572 109.026 236.332C109.35 236.092 109.74 235.972 110.196 235.972H114.336L107.262 246.412C106.962 246.868 106.614 247.246 106.218 247.546C105.822 247.846 105.384 248.08 104.904 248.248C105.624 248.452 106.23 248.776 106.722 249.22C107.226 249.652 107.706 250.252 108.162 251.02L114.984 262ZM126.737 254.116C125.453 254.176 124.373 254.29 123.497 254.458C122.621 254.614 121.919 254.818 121.391 255.07C120.863 255.322 120.485 255.616 120.257 255.952C120.029 256.288 119.915 256.654 119.915 257.05C119.915 257.83 120.143 258.388 120.599 258.724C121.067 259.06 121.673 259.228 122.417 259.228C123.329 259.228 124.115 259.066 124.775 258.742C125.447 258.406 126.101 257.902 126.737 257.23V254.116ZM116.549 246.106C118.673 244.162 121.229 243.19 124.217 243.19C125.297 243.19 126.263 243.37 127.115 243.73C127.967 244.078 128.687 244.57 129.275 245.206C129.863 245.83 130.307 246.58 130.607 247.456C130.919 248.332 131.075 249.292 131.075 250.336V262H129.059C128.639 262 128.315 261.94 128.087 261.82C127.859 261.688 127.679 261.43 127.547 261.046L127.151 259.714C126.683 260.134 126.227 260.506 125.783 260.83C125.339 261.142 124.877 261.406 124.397 261.622C123.917 261.838 123.401 262 122.849 262.108C122.309 262.228 121.709 262.288 121.049 262.288C120.269 262.288 119.549 262.186 118.889 261.982C118.229 261.766 117.659 261.448 117.179 261.028C116.699 260.608 116.327 260.086 116.063 259.462C115.799 258.838 115.667 258.112 115.667 257.284C115.667 256.816 115.745 256.354 115.901 255.898C116.057 255.43 116.309 254.986 116.657 254.566C117.017 254.146 117.479 253.75 118.043 253.378C118.607 253.006 119.297 252.682 120.113 252.406C120.941 252.13 121.901 251.908 122.993 251.74C124.085 251.56 125.333 251.452 126.737 251.416V250.336C126.737 249.1 126.473 248.188 125.945 247.6C125.417 247 124.655 246.7 123.659 246.7C122.939 246.7 122.339 246.784 121.859 246.952C121.391 247.12 120.977 247.312 120.617 247.528C120.257 247.732 119.927 247.918 119.627 248.086C119.339 248.254 119.015 248.338 118.655 248.338C118.343 248.338 118.079 248.26 117.863 248.104C117.647 247.936 117.473 247.744 117.341 247.528L116.549 246.106ZM149.842 243.532V262H145.396V254.746C143.812 255.13 142.342 255.352 140.986 255.412C139.63 255.46 138.454 255.298 137.458 254.926C136.474 254.542 135.7 253.924 135.136 253.072C134.584 252.22 134.308 251.086 134.308 249.67V243.532H138.754V248.986C138.754 249.742 138.874 250.354 139.114 250.822C139.366 251.278 139.756 251.608 140.284 251.812C140.824 252.016 141.514 252.1 142.354 252.064C143.194 252.028 144.208 251.89 145.396 251.65V243.532H149.842ZM166.145 250.642C166.145 250.066 166.061 249.526 165.893 249.022C165.737 248.506 165.497 248.056 165.173 247.672C164.849 247.288 164.435 246.988 163.931 246.772C163.439 246.544 162.863 246.43 162.203 246.43C160.919 246.43 159.905 246.796 159.161 247.528C158.429 248.26 157.961 249.298 157.757 250.642H166.145ZM157.667 253.324C157.739 254.272 157.907 255.094 158.171 255.79C158.435 256.474 158.783 257.044 159.215 257.5C159.647 257.944 160.157 258.28 160.745 258.508C161.345 258.724 162.005 258.832 162.725 258.832C163.445 258.832 164.063 258.748 164.579 258.58C165.107 258.412 165.563 258.226 165.947 258.022C166.343 257.818 166.685 257.632 166.973 257.464C167.273 257.296 167.561 257.212 167.837 257.212C168.209 257.212 168.485 257.35 168.665 257.626L169.943 259.246C169.451 259.822 168.899 260.308 168.287 260.704C167.675 261.088 167.033 261.4 166.361 261.64C165.701 261.868 165.023 262.03 164.327 262.126C163.643 262.222 162.977 262.27 162.329 262.27C161.045 262.27 159.851 262.06 158.747 261.64C157.643 261.208 156.683 260.578 155.867 259.75C155.051 258.91 154.409 257.878 153.941 256.654C153.473 255.418 153.239 253.99 153.239 252.37C153.239 251.11 153.443 249.928 153.851 248.824C154.259 247.708 154.841 246.742 155.597 245.926C156.365 245.098 157.295 244.444 158.387 243.964C159.491 243.484 160.733 243.244 162.113 243.244C163.277 243.244 164.351 243.43 165.335 243.802C166.319 244.174 167.165 244.72 167.873 245.44C168.581 246.148 169.133 247.024 169.529 248.068C169.937 249.1 170.141 250.282 170.141 251.614C170.141 252.286 170.069 252.742 169.925 252.982C169.781 253.21 169.505 253.324 169.097 253.324H157.667ZM186.707 247.438C186.575 247.606 186.443 247.738 186.311 247.834C186.191 247.93 186.011 247.978 185.771 247.978C185.543 247.978 185.321 247.912 185.105 247.78C184.889 247.636 184.631 247.48 184.331 247.312C184.031 247.132 183.671 246.976 183.251 246.844C182.843 246.7 182.333 246.628 181.721 246.628C180.941 246.628 180.257 246.772 179.669 247.06C179.081 247.336 178.589 247.738 178.193 248.266C177.809 248.794 177.521 249.436 177.329 250.192C177.137 250.936 177.041 251.782 177.041 252.73C177.041 253.714 177.143 254.59 177.347 255.358C177.563 256.126 177.869 256.774 178.265 257.302C178.661 257.818 179.141 258.214 179.705 258.49C180.269 258.754 180.905 258.886 181.613 258.886C182.321 258.886 182.891 258.802 183.323 258.634C183.767 258.454 184.139 258.262 184.439 258.058C184.739 257.842 184.997 257.65 185.213 257.482C185.441 257.302 185.693 257.212 185.969 257.212C186.329 257.212 186.599 257.35 186.779 257.626L188.057 259.246C187.565 259.822 187.031 260.308 186.455 260.704C185.879 261.088 185.279 261.4 184.655 261.64C184.043 261.868 183.407 262.03 182.747 262.126C182.099 262.222 181.451 262.27 180.803 262.27C179.663 262.27 178.589 262.06 177.581 261.64C176.573 261.208 175.691 260.584 174.935 259.768C174.179 258.952 173.579 257.956 173.135 256.78C172.703 255.592 172.487 254.242 172.487 252.73C172.487 251.374 172.679 250.12 173.063 248.968C173.459 247.804 174.035 246.802 174.791 245.962C175.547 245.11 176.483 244.444 177.599 243.964C178.715 243.484 179.999 243.244 181.451 243.244C182.831 243.244 184.037 243.466 185.069 243.91C186.113 244.354 187.049 244.99 187.877 245.818L186.707 247.438ZM206.684 246.826H200.096V262H195.65V246.826H189.08V243.532H206.684V246.826ZM216.843 258.958C217.779 258.958 218.517 258.73 219.057 258.274C219.609 257.818 219.885 257.194 219.885 256.402C219.885 256.066 219.837 255.754 219.741 255.466C219.657 255.166 219.501 254.908 219.273 254.692C219.045 254.476 218.733 254.308 218.337 254.188C217.953 254.068 217.461 254.008 216.861 254.008H213.531V258.958H216.843ZM213.531 246.43V251.272H216.447C216.879 251.272 217.275 251.212 217.635 251.092C217.995 250.96 218.307 250.78 218.571 250.552C218.835 250.312 219.039 250.036 219.183 249.724C219.327 249.4 219.399 249.046 219.399 248.662C219.399 248.386 219.351 248.116 219.255 247.852C219.159 247.576 218.997 247.336 218.769 247.132C218.541 246.916 218.235 246.748 217.851 246.628C217.479 246.496 217.011 246.43 216.447 246.43H213.531ZM216.573 243.532C217.737 243.532 218.739 243.646 219.579 243.874C220.431 244.102 221.133 244.414 221.685 244.81C222.237 245.206 222.645 245.68 222.909 246.232C223.173 246.772 223.305 247.36 223.305 247.996C223.305 248.392 223.251 248.806 223.143 249.238C223.047 249.658 222.867 250.066 222.603 250.462C222.351 250.858 222.003 251.218 221.559 251.542C221.115 251.866 220.551 252.118 219.867 252.298C220.479 252.43 221.037 252.616 221.541 252.856C222.045 253.084 222.477 253.378 222.837 253.738C223.197 254.086 223.473 254.5 223.665 254.98C223.869 255.448 223.971 255.976 223.971 256.564C223.971 257.5 223.773 258.31 223.377 258.994C222.993 259.678 222.471 260.242 221.811 260.686C221.163 261.13 220.407 261.46 219.543 261.676C218.691 261.892 217.797 262 216.861 262H209.301V243.532H216.573ZM235.579 243.244C236.947 243.244 238.189 243.466 239.305 243.91C240.433 244.354 241.393 244.984 242.185 245.8C242.989 246.616 243.607 247.612 244.039 248.788C244.471 249.964 244.687 251.278 244.687 252.73C244.687 254.194 244.471 255.514 244.039 256.69C243.607 257.866 242.989 258.868 242.185 259.696C241.393 260.524 240.433 261.16 239.305 261.604C238.189 262.048 236.947 262.27 235.579 262.27C234.199 262.27 232.945 262.048 231.817 261.604C230.689 261.16 229.723 260.524 228.919 259.696C228.127 258.868 227.509 257.866 227.065 256.69C226.633 255.514 226.417 254.194 226.417 252.73C226.417 251.278 226.633 249.964 227.065 248.788C227.509 247.612 228.127 246.616 228.919 245.8C229.723 244.984 230.689 244.354 231.817 243.91C232.945 243.466 234.199 243.244 235.579 243.244ZM235.579 258.85C237.115 258.85 238.249 258.334 238.981 257.302C239.725 256.27 240.097 254.758 240.097 252.766C240.097 250.774 239.725 249.256 238.981 248.212C238.249 247.168 237.115 246.646 235.579 246.646C234.019 246.646 232.861 247.174 232.105 248.23C231.361 249.274 230.989 250.786 230.989 252.766C230.989 254.746 231.361 256.258 232.105 257.302C232.861 258.334 234.019 258.85 235.579 258.85Z" fill="black"/>
</svg>
